<svg version="1.1" xmlns="http://www.w3.org/2000/svg" xmlns:xlink="http://www.w3.org/1999/xlink" width="48" height="48"><defs><linearGradient x1="13.92231" y1="11.68966" x2="34.43124" y2="36.66389" gradientUnits="userSpaceOnUse" id="color-1"><stop offset="1" stop-color="#000000" stop-opacity="0.4"></stop><stop offset="1" stop-color="#000000" stop-opacity="0"></stop></linearGradient><filter id="dropshadow-base"><feColorMatrix type="matrix" values="0 0 0 0 0  0 0 0 0 0  0 0 0 0 0  0 0 0 .8 0"></feColorMatrix> <feOffset dx="0" dy="1"></feOffset> <feGaussianBlur stdDeviation="1"></feGaussianBlur> <feComposite in="SourceGraphic"></feComposite></filter><filter id="dropshadow-banner" x="-10%" y="-10%" width="120%" height="130%"><feColorMatrix type="matrix" values="0 0 0 0 0  0 0 0 0 0  0 0 0 0 0  0 0 0 .4 0"></feColorMatrix> <feOffset dx="0" dy="1"></feOffset> <feGaussianBlur stdDeviation="0.5"></feGaussianBlur> <feComposite in="SourceGraphic"></feComposite></filter></defs><g fill="none" fill-rule="nonzero" stroke="none" stroke-width="none" stroke-linecap="butt" stroke-linejoin="miter" stroke-miterlimit="10" stroke-dasharray="" stroke-dashoffset="0" font-family="none" font-weight="none" font-size="none" text-anchor="none" style="mix-blend-mode: normal"><path d="M3,24c0,-11.59798 9.40202,-21 21,-21c11.59798,0 21,9.40202 21,21c0,11.59798 -9.40202,21 -21,21c-11.59798,0 -21,-9.40202 -21,-21z" id="base 1 1" fill="#ff4081" stroke-width="1" filter="url(#dropshadow-base)"></path><path d="M25.9137,15.01345l-1.64044,-2.84088l-1.84459,3.19443c-0.20144,0.33574 -0.31895,0.73302 -0.31895,1.1527c0,0.5282 0.18273,1.01352 0.48846,1.39623c0.38271,0.30573 0.86803,0.48846 1.39623,0.48846c1.23663,0 2.23824,-1.00161 2.23824,-2.23824c0,-0.41967 -0.11751,-0.81696 -0.31895,-1.1527zM21.75616,16.16615c0,-0.41967 0.11751,-0.81696 0.31895,-1.1527l1.91929,-3.32379l0.35355,0.35355l1.91929,3.32379c0.20144,0.33574 0.31895,0.73302 0.31895,1.1527c0,1.23663 -1.00161,2.23824 -2.23824,2.23824c-0.61831,0 -1.17788,-0.2504 -1.58286,-0.65539l-0.35355,-0.35355c-0.40498,-0.40498 -0.65539,-0.96454 -0.65539,-1.58286zM28.28727,28.72932l-1.20865,1.20306c-1.46045,1.46045 -4.01205,1.46045 -5.4725,0l-0.35355,-0.35355c1.46045,1.46045 4.01205,1.46045 5.4725,0l1.20865,-1.20306zM20.40305,28.72932l-1.20865,1.20306c-0.72183,0.73302 -1.68987,1.13591 -2.72506,1.13591c-0.81136,0 -1.56677,-0.2574 -2.19348,-0.68826v5.16475c0,0.21773 0.06302,0.42146 0.17172,0.59385c0.17239,0.1087 0.37612,0.17172 0.59385,0.17172h17.90595c0.61552,0 1.11912,-0.5036 1.11912,-1.11912v-4.59397c-0.54791,0.2987 -1.17144,0.47104 -1.83992,0.47104c-1.03519,0 -2.00323,-0.40288 -2.73625,-1.13591l-0.35355,-0.35355c0.73302,0.73302 1.70106,1.13591 2.73625,1.13591c0.81696,0 1.56677,-0.2574 2.19348,-0.68826l0.35355,0.35355v5.16475c0,0.61552 -0.5036,1.11912 -1.11912,1.11912h-17.90595c-0.30776,0 -0.58754,-0.1259 -0.79038,-0.32874l-0.35355,-0.35355c-0.20284,-0.20284 -0.32874,-0.48262 -0.32874,-0.79038v-5.16475c0.62671,0.43086 1.38212,0.68826 2.19348,0.68826c1.03519,0 2.00323,-0.40288 2.72506,-1.13591l1.20865,-1.20306zM25.11353,19.87707h-1.88469v2.23824h-5.59561c-1.85215,0 -3.35736,1.50522 -3.35736,3.35736v1.72345c0,0.51453 0.17848,0.98851 0.47672,1.3632c0.3747,0.29825 0.84867,0.47672 1.3632,0.47672c0.58754,0 1.13591,-0.22942 1.54998,-0.64349l2.39492,-2.38932l2.38932,2.38373c0.82815,0.82815 2.27182,0.82815 3.09997,0l2.39492,-2.38373l2.38932,2.38373c0.41407,0.41407 0.96244,0.64349 1.54998,0.64349c1.20865,0 2.19348,-0.98483 2.19348,-2.19348v-1.71785c-0.00504,-0.83492 -0.31369,-1.59935 -0.82086,-2.18717c-0.58964,-0.5087 -1.35641,-0.81664 -2.19415,-0.81664h-5.59561l-0.35355,-0.35355zM34.43124,25.47267v1.71785c0,1.20865 -0.98483,2.19348 -2.19348,2.19348c-0.58754,0 -1.13591,-0.22942 -1.54998,-0.64349l-2.38932,-2.38373l-2.39492,2.38373c-0.82815,0.82815 -2.27182,0.82815 -3.09997,0l-2.38932,-2.38373l-2.39492,2.38932c-0.41407,0.41407 -0.96244,0.64349 -1.54998,0.64349c-0.60433,0 -1.1527,-0.24621 -1.54998,-0.64349l-0.35355,-0.35355c-0.39729,-0.39729 -0.64349,-0.94566 -0.64349,-1.54998v-1.72345c0,-1.85215 1.50522,-3.35736 3.35736,-3.35736h5.59561v-2.23824h2.23824l0.35355,0.35355l0,1.88469l5.24205,0c0.92748,0 1.76796,0.37745 2.3774,0.98689l0.35355,0.35355c0.6076,0.6076 0.98557,1.4458 0.99115,2.37047z" fill="url(#color-1)" stroke-width="1"></path><path d="M23.9944,18.40439c1.23663,0 2.23824,-1.00161 2.23824,-2.23824c0,-0.41967 -0.11751,-0.81696 -0.31895,-1.1527l-1.91929,-3.32379l-1.91929,3.32379c-0.20144,0.33574 -0.31895,0.73302 -0.31895,1.1527c0,1.23663 1.00161,2.23824 2.23824,2.23824zM29.13677,29.57882l-1.20306,-1.20306l-1.20865,1.20306c-1.46045,1.46045 -4.01205,1.46045 -5.4725,0l-1.20306,-1.20306l-1.20865,1.20306c-0.72183,0.73302 -1.68987,1.13591 -2.72506,1.13591c-0.81136,0 -1.56677,-0.2574 -2.19348,-0.68826v5.16475c0,0.61552 0.5036,1.11912 1.11912,1.11912h17.90595c0.61552,0 1.11912,-0.5036 1.11912,-1.11912v-5.16475c-0.62671,0.43086 -1.37652,0.68826 -2.19348,0.68826c-1.03519,0 -2.00323,-0.40288 -2.73625,-1.13591zM30.70913,21.76176h-5.59561v-2.23824h-2.23824v2.23824h-5.59561c-1.85215,0 -3.35736,1.50522 -3.35736,3.35736v1.72345c0,1.20865 0.98483,2.19348 2.19348,2.19348c0.58754,0 1.13591,-0.22942 1.54998,-0.64349l2.39492,-2.38932l2.38932,2.38373c0.82815,0.82815 2.27182,0.82815 3.09997,0l2.39492,-2.38373l2.38932,2.38373c0.41407,0.41407 0.96244,0.64349 1.54998,0.64349c1.20865,0 2.19348,-0.98483 2.19348,-2.19348v-1.71785c-0.01119,-1.85215 -1.51641,-3.35736 -3.36856,-3.35736z" fill="#ffffff" stroke-width="0"></path></g></svg>